<svg xmlns="http://www.w3.org/2000/svg" xmlns:xlink="http://www.w3.org/1999/xlink" width="302" height="320" viewBox="0 0 302 320" role="img" aria-label="Logo Sluníčko - Mateřská škola">
  <defs>
    <radialGradient id="sunGradient" cx="42%" cy="32%" r="72%">
      <stop offset="0%" stop-color="#fff8a8"/>
      <stop offset="52%" stop-color="#f6ea32"/>
      <stop offset="100%" stop-color="#e0cf1c"/>
    </radialGradient>
  </defs>

  <g fill="#202124" font-family='"Chalkboard SE","Comic Sans MS","Nunito",system-ui,sans-serif' font-weight="700" font-size="32">
    <text x="68" y="99" transform="rotate(-27 68 99)">S</text>
    <text x="93" y="80" transform="rotate(-18 93 80)">L</text>
    <text x="121" y="69" transform="rotate(-8 121 69)">U</text>
    <text x="148" y="66" transform="rotate(2 148 66)">N</text>
    <text x="176" y="70" transform="rotate(12 176 70)">Í</text>
    <text x="202" y="83" transform="rotate(23 202 83)">Č</text>
    <text x="224" y="102" transform="rotate(35 224 102)">K</text>
    <text x="241" y="126" transform="rotate(47 241 126)">O</text>
  </g>

  <g>
    <path fill="none" stroke="#f4e321" stroke-width="4.6" stroke-linecap="round" stroke-linejoin="round" vector-effect="non-scaling-stroke" d="M117 114 L112 101"/>
    <path fill="none" stroke="#f4e321" stroke-width="4.6" stroke-linecap="round" stroke-linejoin="round" vector-effect="non-scaling-stroke" d="M150 103 L154 84"/>
    <path fill="none" stroke="#f4e321" stroke-width="4.6" stroke-linecap="round" stroke-linejoin="round" vector-effect="non-scaling-stroke" d="M184 111 L193 92"/>
    <path fill="none" stroke="#f4e321" stroke-width="4.6" stroke-linecap="round" stroke-linejoin="round" vector-effect="non-scaling-stroke" d="M218 139 L235 132"/>
    <path fill="none" stroke="#f4e321" stroke-width="4.6" stroke-linecap="round" stroke-linejoin="round" vector-effect="non-scaling-stroke" d="M235 174 L256 174"/>
    <path fill="none" stroke="#f4e321" stroke-width="4.6" stroke-linecap="round" stroke-linejoin="round" vector-effect="non-scaling-stroke" d="M224 207 L245 217"/>
    <path fill="none" stroke="#f4e321" stroke-width="4.6" stroke-linecap="round" stroke-linejoin="round" vector-effect="non-scaling-stroke" d="M195 237 L205 255"/>
    <path fill="none" stroke="#f4e321" stroke-width="4.6" stroke-linecap="round" stroke-linejoin="round" vector-effect="non-scaling-stroke" d="M162 253 L165 272"/>
    <path fill="none" stroke="#f4e321" stroke-width="4.6" stroke-linecap="round" stroke-linejoin="round" vector-effect="non-scaling-stroke" d="M127 254 L121 273"/>
    <path fill="none" stroke="#f4e321" stroke-width="4.6" stroke-linecap="round" stroke-linejoin="round" vector-effect="non-scaling-stroke" d="M95 239 L84 255"/>
    <path fill="none" stroke="#f4e321" stroke-width="4.6" stroke-linecap="round" stroke-linejoin="round" vector-effect="non-scaling-stroke" d="M69 208 L50 215"/>
    <path fill="none" stroke="#f4e321" stroke-width="4.6" stroke-linecap="round" stroke-linejoin="round" vector-effect="non-scaling-stroke" d="M60 175 L39 177"/>
    <path fill="none" stroke="#f4e321" stroke-width="4.6" stroke-linecap="round" stroke-linejoin="round" vector-effect="non-scaling-stroke" d="M68 143 L50 136"/>

    <path fill="none" stroke="#202124" stroke-width="2.4" stroke-linecap="round" stroke-linejoin="round" vector-effect="non-scaling-stroke" opacity=".9" d="M113 112 L108 99"/>
    <path fill="none" stroke="#202124" stroke-width="2.4" stroke-linecap="round" stroke-linejoin="round" vector-effect="non-scaling-stroke" opacity=".9" d="M146 103 L150 84"/>
    <path fill="none" stroke="#202124" stroke-width="2.4" stroke-linecap="round" stroke-linejoin="round" vector-effect="non-scaling-stroke" opacity=".9" d="M180 110 L189 91"/>
    <path fill="none" stroke="#202124" stroke-width="2.4" stroke-linecap="round" stroke-linejoin="round" vector-effect="non-scaling-stroke" opacity=".9" d="M215 136 L232 129"/>
    <path fill="none" stroke="#202124" stroke-width="2.4" stroke-linecap="round" stroke-linejoin="round" vector-effect="non-scaling-stroke" opacity=".9" d="M235 170 L255 170"/>
    <path fill="none" stroke="#202124" stroke-width="2.4" stroke-linecap="round" stroke-linejoin="round" vector-effect="non-scaling-stroke" opacity=".9" d="M226 202 L247 212"/>
    <path fill="none" stroke="#202124" stroke-width="2.4" stroke-linecap="round" stroke-linejoin="round" vector-effect="non-scaling-stroke" opacity=".9" d="M199 234 L209 252"/>
    <path fill="none" stroke="#202124" stroke-width="2.4" stroke-linecap="round" stroke-linejoin="round" vector-effect="non-scaling-stroke" opacity=".9" d="M157 254 L160 273"/>
    <path fill="none" stroke="#202124" stroke-width="2.4" stroke-linecap="round" stroke-linejoin="round" vector-effect="non-scaling-stroke" opacity=".9" d="M122 254 L116 272"/>
    <path fill="none" stroke="#202124" stroke-width="2.4" stroke-linecap="round" stroke-linejoin="round" vector-effect="non-scaling-stroke" opacity=".9" d="M91 237 L80 252"/>
    <path fill="none" stroke="#202124" stroke-width="2.4" stroke-linecap="round" stroke-linejoin="round" vector-effect="non-scaling-stroke" opacity=".9" d="M66 204 L47 211"/>
    <path fill="none" stroke="#202124" stroke-width="2.4" stroke-linecap="round" stroke-linejoin="round" vector-effect="non-scaling-stroke" opacity=".9" d="M59 171 L38 173"/>
    <path fill="none" stroke="#202124" stroke-width="2.4" stroke-linecap="round" stroke-linejoin="round" vector-effect="non-scaling-stroke" opacity=".9" d="M70 139 L52 132"/>
  </g>

  <ellipse cx="148" cy="179" rx="73" ry="66" fill="url(#sunGradient)"/>
  <ellipse fill="none" stroke="#202124" stroke-width="4.3" stroke-linecap="round" stroke-linejoin="round" vector-effect="non-scaling-stroke" cx="148" cy="179" rx="75" ry="67"/>
  <path fill="none" stroke="#202124" stroke-width="4.1" stroke-linecap="round" stroke-linejoin="round" vector-effect="non-scaling-stroke" d="M92 166 C104 202 128 209 145 209 C166 209 186 198 194 165"/>
  <path fill="none" stroke="#202124" stroke-width="3.2" stroke-linecap="round" stroke-linejoin="round" vector-effect="non-scaling-stroke" d="M116 148 C122 142 130 142 134 148"/>
  <path fill="none" stroke="#202124" stroke-width="3.2" stroke-linecap="round" stroke-linejoin="round" vector-effect="non-scaling-stroke" d="M151 147 C157 141 165 141 169 148"/>

  <g fill="#202124" font-family='"Chalkboard SE","Comic Sans MS","Nunito",system-ui,sans-serif' font-weight="700" font-size="17">
    <text x="82" y="281" transform="rotate(24 82 281)">M</text>
    <text x="99" y="287" transform="rotate(19 99 287)">a</text>
    <text x="111" y="291" transform="rotate(15 111 291)">t</text>
    <text x="120" y="294" transform="rotate(11 120 294)">e</text>
    <text x="131" y="296" transform="rotate(7 131 296)">ř</text>
    <text x="142" y="298" transform="rotate(3 142 298)">s</text>
    <text x="153" y="298" transform="rotate(0 153 298)">k</text>
    <text x="164" y="297" transform="rotate(-4 164 297)">á</text>
    <text x="181" y="294" transform="rotate(-10 181 294)">š</text>
    <text x="192" y="291" transform="rotate(-14 192 291)">k</text>
    <text x="203" y="287" transform="rotate(-18 203 287)">o</text>
    <text x="214" y="283" transform="rotate(-22 214 283)">l</text>
    <text x="222" y="279" transform="rotate(-25 222 279)">a</text>
  </g>
</svg>
